<?xml version="1.0" encoding="UTF-8"?>
<svg width="639" height="477" version="1.1" viewBox="0 0 169.07 126.21" xmlns="http://www.w3.org/2000/svg"><defs><clipPath id="a"><path d="m334.67 175.33c52 0 94 31.667 94 71 0 39.333-42 71.333-94 71.333-51.667 0-93.667-32-93.667-71.333 0-39.333 42-71 93.667-71z"/></clipPath></defs><g transform="translate(-77.554 -117.94)"><path d="m246.62 244.14h-168.89v-126.21h168.89z" style="fill:#d33a2a"/><path d="m219.52 175.17h-141.96v16.14h141.96z" style="fill:#000000"/><path d="m140.77 206.57-1.0594-.79375.44143-1.4111-1.9423-1.4111-1.236.88195-1.0594-.70556 5.5621-3.8806 1.0594.70556zm-.35315-3.3514.7063-2.3812-2.0306 1.4111z" style="fill:#ffffff"/><path d="m145.45 208.78 2.0306-5.9972c2.3837.79375 2.3837.79375 2.3837.79375.618.17639 1.0594.44097 1.3243.61736.17657.17639.35315.44098.44144.79375.0883.35278 0 .70556-.0883 1.0583-.17658.44097-.44144.79375-.79458.97014-.35315.17638-.79458.26458-1.3243.17638.26485.26459.35314.44098.44143.70556.0883.26458.26485.61736.35314 1.2347l.26486 1.4111-1.3243-.44097-.44144-1.5875c-.0883-.61736-.17658-.97014-.26486-1.1465-.0883-.17639-.17657-.26458-.26486-.35277-.0883-.0882-.26486-.17639-.52972-.26459s-.26486-.0882-.26486-.0882l-.79458 2.5576zm2.2954-3.0868.88287.26458c.52971.17639.88286.26459 1.0594.26459.0883 0 .26486 0 .35315-.0882.17657-.0882.26486-.26459.26486-.44097.0883-.17639.0883-.35278 0-.52917 0-.17639-.17658-.26458-.35315-.35278-.0883-.0882-.35315-.17639-.79458-.35278l-.88286-.26458z" style="fill:#ffffff"/><path d="m155.16 211.42.88287-6.35 1.1477.0882-.79458 6.35z" style="fill:#ffffff"/><path d="m162.49 213.1-.0883-1.1465 3.0017-4.2333-2.8252.0882v-1.0583l4.326-.17639.0883.97014-3.09 4.4979 3.3549-.17639.0883 1.0583z" style="fill:#ffffff"/><path d="m170.87 209.75c-.17658-.61736-.26487-1.1465-.17658-1.6757 0-.35278.0883-.61736.26486-.97014.17657-.26458.35315-.52917.61801-.70556.26485-.26458.70629-.52916 1.1477-.61736.88286-.26458 1.5892-.0882 2.2954.26459.61801.44097 1.1477 1.1465 1.4126 2.2049.26486.97014.17657 1.8521-.17657 2.4694-.35315.70556-.88287 1.2347-1.7657 1.4111-.88287.26459-1.5892.17639-2.2954-.26458-.618-.44097-1.0594-1.1465-1.3243-2.1167zm1.1477-.35277c.17657.70555.52972 1.1465.88287 1.4993.44143.26458.88286.35278 1.3243.17639.44144-.0882.79458-.35278.97115-.79375.17658-.44097.17658-1.0583 0-1.7639-.17657-.70555-.44143-1.2347-.88286-1.4993-.35315-.26459-.79458-.26459-1.236-.17639-.52972.17639-.88287.44097-1.0594.88194-.17658.44097-.17658.97014 0 1.6757z" style="fill:#ffffff"/><path d="m182.09 209.92-3.3549-5.468.97115-.61736 4.326 2.3812-2.2072-3.616.97115-.61736 3.3549 5.4681-1.0594.61736-4.2378-2.2931 2.2072 3.5278z" style="fill:#ffffff"/><path d="m194.18 200.04-.79457 1.0583-1.5009-.44097-1.4126 1.8521.79458 1.3229-.79458.97013-3.6198-5.7326.79458-.97014zm-3.3549.26459-2.3837-.79375 1.4126 2.0285z" style="fill:#ffffff"/><path transform="matrix(.26486 0 0 .26458 77.466 117.94)" d="m224 161.67h220.67v168.67h-220.67z" clip-path="url(#a)" style="fill:#002664"/><path transform="matrix(.26486 0 0 .26458 77.466 117.94)" d="m224 161.67h220.67v84.333h-220.67z" clip-path="url(#a)" style="fill:#bb133e"/><path transform="matrix(.26486 0 0 .26458 77.466 117.94)" d="m444.67 181.33v35.333l-110.33 29.333zm-57-19.667h31.667l-85 84.333zm-43 0h18.667l-29 84.333z" clip-path="url(#a)" style="fill:#fed700"/><path transform="matrix(.26486 0 0 .26458 77.466 117.94)" d="m224 181.33v35.333l110.33 29.333zm57.333-19.667h-32l85 84.333zm42.667 0h-18.333l28.667 84.333z" clip-path="url(#a)" style="fill:#fed700"/><path transform="matrix(.26486 0 0 .26458 77.466 117.94)" d="m334.33 203.67 24 84.333-62.333-52.333h77l-62.333 52.333z" clip-path="url(#a)" style="fill:#ce5c17"/><path d="m191.8 183.29c0 10.848-11.477 19.667-25.603 19.667-14.126 0-25.603-8.8194-25.603-19.667 0-10.936 11.477-19.756 25.603-19.756 14.126 0 25.603 8.8194 25.603 19.756z" style="fill:none;stroke-miterlimit:10;stroke-width:1.7648px;stroke:#d33a2a"/><path d="m137.59 169.53-.79458-.70556c1.7657-2.0285 1.7657-2.0285 1.7657-2.0285l1.9423 1.5875c0 .35278-.0883.79375-.26486 1.3229-.17658.52916-.35314.97013-.70629 1.3229-.44143.52917-.88287.88195-1.4126 1.0583-.52973.17638-1.0594.26458-1.6774.0882-.52972-.17639-1.0594-.44098-1.5009-.79375-.52972-.44098-.88287-.97014-1.0594-1.4993-.26485-.52917-.26485-1.0583-.17657-1.6757.0883-.44098.35315-.88195.7063-1.3229.52972-.61736 1.0594-.97014 1.5892-1.0583.52972-.0882 1.0594 0 1.5892.26458l-.618 1.0583c-.26486-.0882-.61801-.17639-.88287-.0882-.26486.0882-.52971.26459-.79458.52917-.35314.44097-.52971.88194-.44143 1.3229.0883.52916.35315.97013.88287 1.4111.618.52916 1.1477.70555 1.5892.70555.52971 0 .97115-.17639 1.3243-.61736.17657-.17639.26487-.44097.35315-.70555.0883-.26459.17657-.52917.17657-.79375l-.618-.44098z" style="fill:#ffffff"/><path d="m141.83 168.47c-3.8846-5.1153-3.8846-5.1153-3.8846-5.1153l2.1189-1.5875c.52973-.35278.88287-.61737 1.236-.70556.26486-.0882.61801-.0882.97116 0 .26485.17639.52971.35278.79457.61736.26486.44097.44143.79375.35314 1.2347 0 .44098-.17657.79375-.618 1.2347.35315-.0882.618-.0882.88287 0 .26486 0 .70629.17638 1.236.35277l1.3243.52917-1.236.88194-1.5009-.52916c-.618-.17639-.97115-.26459-1.1477-.35278-.17658 0-.26486 0-.44143.0882-.0883 0-.26487.0882-.52973.26458l-.17657.1764c1.5892 2.1167 1.5892 2.1167 1.5892 2.1167zm-1.236-3.7042.70629-.52917c.52971-.44097.79458-.61736.88286-.79375.0883-.0882.0883-.26458.0883-.44097s-.0883-.26459-.17658-.44097c-.17657-.17639-.26487-.26459-.44144-.26459-.17656-.0882-.35314-.0882-.52971.0882-.0883 0-.35315.17639-.79458.52917l-.7063.52917z" style="fill:#ffffff"/><path d="m151.63 162.3-1.236.61736-1.1477-1.0583-2.2072 1.1465.17656 1.4993-1.1477.61736-.79458-6.7028 1.236-.61736zm-3.2666-1.1465-1.854-1.7639.35314 2.4694z" style="fill:#ffffff"/><path d="m152.07 162.12-2.1189-5.9972 1.1477-.35278 3.7963 3.175-1.3243-4.0569 1.0594-.35278 2.1189 5.9972-1.236.44098-3.708-3.0868 1.3243 3.8806z" style="fill:#ffffff"/><path d="m156.57 154.01c2.2954-.44097 2.2954-.44097 2.2954-.44097.44143-.0882.88287-.0882 1.1477-.0882.35315 0 .70629.17639 1.0594.35278.26487.26459.52973.52917.79458.97014.17658.35278.35315.79375.44143 1.4111.0883.52917.17658.97014.0883 1.3229-.0883.52917-.17658.88194-.44143 1.2347-.17658.26458-.44144.52917-.79458.70556-.26486.0882-.61801.26458-1.0594.35277-2.2954.44098-2.2954.44098-2.2954.44098zm1.4126.79375.88286 4.1451.88287-.17639c.35314-.0882.61801-.0882.70629-.17638.17657-.0882.35315-.26459.44143-.35278.17657-.17639.17657-.35278.26487-.70556 0-.26458 0-.70555-.0883-1.1465-.17657-.44097-.26486-.88194-.35314-1.0583-.17658-.26458-.35315-.44097-.52973-.52917-.17657-.17638-.35315-.17638-.618-.17638-.17658 0-.52972 0-.97115.0882z" style="fill:#ffffff"/><path d="m170.25 157.18 1.1477.61737c-.35315.61736-.70629 1.0583-1.1477 1.4111-.52971.26458-1.0594.26458-1.7657.17639-.79458-.0882-1.4126-.52917-1.854-1.1465s-.61801-1.4993-.44143-2.4694c.17657-1.0583.52972-1.7639 1.1477-2.293.61801-.52917 1.4126-.70556 2.2954-.52917.7063.0882 1.3243.44097 1.6774.97014.26486.26458.44143.70556.44143 1.2347l-1.236.0882c0-.35277-.17657-.61736-.35315-.79375-.17657-.26458-.44143-.35277-.79458-.44097-.44143-.0882-.88286.0882-1.236.35278-.26486.26458-.52972.79375-.618 1.4993-.17658.79375-.0883 1.4111.17657 1.7639.17657.44098.52972.61736.97115.70556.35314.0882.61801 0 .88287-.17639.26485-.17639.52972-.52917.70628-.97014z" style="fill:#ffffff"/><path d="m177.32 161.42-1.236-.35278-.17657-1.4993-2.3837-.70555-.88287 1.2347-1.3243-.35278 4.0612-5.468 1.3243.35278zm-1.5009-2.9986-.17657-2.5576-1.5009 2.0285z" style="fill:#ffffff"/><path d="m177.85 161.59 2.472-5.8208 1.1477.52917.61801 4.8507 1.6774-3.8806 1.0594.44097-2.472 5.8208-1.1477-.44097-.70628-4.8507-1.5892 3.8806z" style="fill:#ffffff"/><path d="m184.73 164.94 1.4126-2.2931-.0883-4.3215 1.236.70556v2.9104l2.472-1.4111 1.236.70556-3.7963 2.0285-1.4126 2.2931z" style="fill:#ffffff"/><path d="m189.94 164.33c.35315-.44097.79458-.79375 1.236-1.0583.35315-.17639.61802-.26458.97116-.26458.35314-.0882.70629 0 1.0594.0882.35314.0882.79458.26458 1.1477.61736.7063.61736 1.0594 1.2347 1.1477 2.0285.0883.88194-.26486 1.6757-.88286 2.4694-.7063.79375-1.4126 1.2347-2.2072 1.3229-.79458.0882-1.5009-.17639-2.2072-.70556-.7063-.61736-1.1477-1.3229-1.1477-2.1167-.0883-.79375.26486-1.5875.88286-2.3812zm.97116.79375c-.44143.61737-.61801 1.1465-.61801 1.5875 0 .52917.17658.88195.61801 1.2347.35315.35277.79458.44097 1.3243.35277.44143-.0882.88286-.44097 1.4126-.97013.44143-.52917.61801-1.0583.61801-1.5875 0-.44098-.17658-.88195-.61801-1.1465-.35315-.35278-.79458-.44097-1.3243-.44097-.44143.0882-.88286.44097-1.4126.97013z" style="fill:#ffffff"/><path d="m193.12 171.12 4.8558-4.057.79457.97014-1.6774 4.6743 3.2666-2.734.79458.88194-4.944 4.057-.79458-.97014 1.5892-4.5861-3.1783 2.6458z" style="fill:#ffffff"/></g></svg>
